<?xml version="1.0" encoding="utf-8"?>
<!-- Generator: Adobe Illustrator 25.3.1, SVG Export Plug-In . SVG Version: 6.00 Build 0)  -->
<svg version="1.1" id="logo_x5F_w" xmlns="http://www.w3.org/2000/svg" xmlns:xlink="http://www.w3.org/1999/xlink" x="0px" y="0px"
	 viewBox="0 0 200 44" style="enable-background:new 0 0 200 44;" xml:space="preserve">
<style type="text/css">
	.st0{fill:#FFFFFF;}
</style>
<g>
	<g>
		<path class="st0" d="M0.19,21.69C0.19,10.26,9.46,1,20.89,1c0.23,0,0.45,0.03,0.68,0.04C14.12,2.65,6.94,9.48,5.05,17.04
			c-2.03,8.12,2.82,14.01,10.84,13.14c1.86-0.2,3.72-0.76,5.52-1.58c-2.08,4.58-6.98,8.34-11.65,8.72c-0.96,0.08-1.83,0-2.62-0.19
			C2.88,33.33,0.19,27.84,0.19,21.69z M20.06,26.97c0.69-0.07,1.38-0.22,2.06-0.41c1.27-5.04-1.66-8.74-6.71-8.33
			c-1.54,0.13-3.09,0.62-4.56,1.38C11.06,24.42,14.69,27.56,20.06,26.97z M39.98,7.65c-1.16-0.13-2.25,0.23-3.09,0.93
			c-1.67-2.03-3.72-3.75-6.04-5.03c-1.35-0.57-2.97-0.81-4.79-0.61c-6.55,0.71-13.2,6.66-14.86,13.3c-0.24,0.94-0.34,1.84-0.36,2.69
			c2.46-1.77,5.25-2.95,7.99-3.17c5.54-0.45,8.99,3.13,8.55,8.3c-0.02,0.14-0.03,0.33-0.07,0.59c-0.09,0.6-0.21,1.22-0.4,1.86
			C25,32.98,18.28,38.62,11.9,39.14c-0.79,0.06-1.53,0.03-2.23-0.07c3.23,2.09,7.07,3.31,11.21,3.31c11.43,0,20.69-9.26,20.69-20.69
			c0-1.63-0.19-3.22-0.55-4.74c1.64-0.53,2.87-2.09,3.01-4.06C44.22,10.28,42.41,7.93,39.98,7.65z M27.49,30.35
			c1.66-1.66,2.69-4.05,2.7-6.73c0.01-5.29-3.97-9.77-8.9-10c-1.08-0.05-2.11,0.11-3.06,0.44c1.62-1.61,3.81-2.56,6.24-2.45
			c4.93,0.23,8.91,4.7,8.9,10C33.37,25.75,30.92,29.16,27.49,30.35z M38.89,18.3c-0.22,3.52-2.48,6.29-5.45,7.13
			c1.5-1.33,2.5-3.3,2.64-5.59c0.29-4.5-2.87-8.52-7.05-8.97c-0.91-0.1-1.8-0.02-2.63,0.22c1.45-1.29,3.38-1.98,5.43-1.75
			C36.02,9.79,39.18,13.8,38.89,18.3z M42.4,13.78c-0.09,1.24-0.62,2.31-1.39,3.07c-0.74-3.06-2.16-5.86-4.09-8.22
			c0.45-0.11,0.93-0.14,1.42-0.08C40.77,8.82,42.59,11.16,42.4,13.78z"/>
		<g>
			<path class="st0" d="M67.11,30.3c-6.62,0-12.01-5.39-12.01-12.01v-3.14c0-6.62,5.39-12.02,12.01-12.02h17.6v5.18h-17.6
				c-3.77,0-6.84,3.07-6.84,6.84v3.14c0,3.77,3.07,6.84,6.84,6.84h22.97c0.41,0,0.74-0.33,0.74-0.74v-0.31
				c0-2.24-1.82-4.06-4.06-4.06H68.82v-5.17h17.94c5.09,0,9.24,4.14,9.24,9.24v6.22H67.11z"/>
			<path class="st0" d="M155.07,30.3v-5.17h28.83c1.58,0,2.85-1.37,2.85-2.94c0-1.57-1.28-2.85-2.85-2.85h-22.93
				c-4.47,0-8.11-3.63-8.11-8.09c0-4.47,3.64-8.11,8.11-8.11h17.35v5.17h-17.35c-1.57,0-2.85,1.37-2.85,2.94
				c0,1.56,1.28,2.83,2.85,2.83h22.93c4.47,0,8.11,3.64,8.11,8.11c0,4.47-3.63,8.11-8.11,8.11H155.07z"/>
			<path class="st0" d="M113.12,8.3c-2.24,0-4.07,1.83-4.07,4.07v17.97h-5.17V12.37c0-5.1,4.14-9.24,9.24-9.24h24.39
				c5.09,0,9.24,4.15,9.24,9.24v8.94h-5.17v-8.94c0-2.24-1.82-4.07-4.06-4.07H113.12z"/>
			<rect x="141.57" y="25.17" class="st0" width="5.17" height="5.17"/>
			<path class="st0" d="M128.05,12.9c0,1.51-1.23,2.74-2.74,2.74c-1.51,0-2.74-1.22-2.74-2.74c0-1.51,1.23-2.74,2.74-2.74
				C126.82,10.16,128.05,11.39,128.05,12.9z"/>
			<rect x="88.57" y="3.13" class="st0" width="5.17" height="5.18"/>
			<path class="st0" d="M125.31,17.97c-0.95,0-1.83-0.28-2.59-0.73v13.1h5.17v-13.1C127.14,17.7,126.26,17.97,125.31,17.97z"/>
			<rect x="182.18" y="3.13" class="st0" width="5.18" height="5.18"/>
		</g>
		<g>
			<path class="st0" d="M63.95,41.33c-1.97,0-3.49-1.46-3.49-3.34c0-1.84,1.5-3.31,3.38-3.31c1.4,0,2.72,0.84,3.14,2h-1.4
				c-0.4-0.56-1.02-0.85-1.76-0.85c-1.27,0-2.16,0.97-2.16,2.18c0,1.23,0.96,2.17,2.22,2.17c0.84,0,1.54-0.42,1.89-1.13h-2.66v-1.11
				h4.2v0.16C67.3,39.85,65.84,41.33,63.95,41.33z"/>
			<path class="st0" d="M68.4,41.22V34.8h1.16v6.42H68.4z"/>
			<path class="st0" d="M73.26,41.33c-1.41,0-2.56-1.13-2.56-2.52c0-1.38,1.15-2.52,2.55-2.52c1.45,0,2.57,1.12,2.57,2.55
				C75.83,40.2,74.66,41.33,73.26,41.33z M73.26,37.35c-0.76,0-1.39,0.66-1.39,1.44c0,0.83,0.62,1.48,1.4,1.48
				c0.76,0,1.39-0.65,1.39-1.46C74.66,38.01,74.04,37.35,73.26,37.35z"/>
			<path class="st0" d="M79.64,41.33c-0.71,0-1.17-0.2-1.67-0.73v0.62h-1.06V34.8h1.15v2.05c0.45-0.44,0.87-0.62,1.5-0.62
				c1.38,0,2.42,1.09,2.42,2.55C81.99,40.23,81,41.33,79.64,41.33z M79.4,37.29c-0.81,0-1.4,0.62-1.4,1.48c0,0.88,0.59,1.5,1.43,1.5
				c0.82,0,1.4-0.61,1.4-1.49C80.82,37.93,80.22,37.29,79.4,37.29z"/>
			<path class="st0" d="M86.9,41.22v-0.63c-0.46,0.52-0.92,0.74-1.6,0.74c-1.41,0-2.42-1.05-2.42-2.5c0-1.47,1.03-2.54,2.45-2.54
				c0.7,0,1.17,0.22,1.57,0.76v-0.64h1.06v4.81H86.9z M85.44,37.35c-0.83,0-1.41,0.63-1.41,1.51c0,0.84,0.58,1.42,1.42,1.42
				c0.88,0,1.4-0.63,1.4-1.43C86.86,37.97,86.27,37.35,85.44,37.35z"/>
			<path class="st0" d="M89.25,41.22V34.8h1.16v6.42H89.25z"/>
			<path class="st0" d="M100.28,41.22v-4.81l-1.68,4.81h-0.97l-1.68-4.81v4.81h-1.19V34.8h1.63l1.73,4.87l1.71-4.87h1.63v6.42
				H100.28z"/>
			<path class="st0" d="M105.24,41.33c-1.41,0-2.55-1.13-2.55-2.52c0-1.38,1.15-2.52,2.55-2.52c1.45,0,2.57,1.12,2.57,2.55
				C107.8,40.2,106.64,41.33,105.24,41.33z M105.24,37.35c-0.76,0-1.39,0.66-1.39,1.44c0,0.83,0.62,1.48,1.4,1.48
				c0.77,0,1.39-0.65,1.39-1.46C106.64,38.01,106.01,37.35,105.24,37.35z"/>
			<path class="st0" d="M111.61,41.33c-0.71,0-1.17-0.2-1.67-0.73v0.62h-1.06V34.8h1.16v2.05c0.44-0.44,0.87-0.62,1.49-0.62
				c1.38,0,2.42,1.09,2.42,2.55C113.96,40.23,112.97,41.33,111.61,41.33z M111.37,37.29c-0.81,0-1.4,0.62-1.4,1.48
				c0,0.88,0.59,1.5,1.42,1.5c0.83,0,1.4-0.61,1.4-1.49C112.8,37.93,112.2,37.29,111.37,37.29z"/>
			<path class="st0" d="M115.05,41.22v-4.81h1.16v4.81H115.05z M115.06,35.71v-1.15h1.16v1.15H115.06z"/>
			<path class="st0" d="M117.57,41.22V34.8h1.16v6.42H117.57z"/>
			<path class="st0" d="M120.09,41.22v-4.81h1.16v4.81H120.09z M120.1,35.71v-1.15h1.16v1.15H120.1z"/>
			<path class="st0" d="M123.94,37.46v3.76h-1.15v-3.76h-0.57v-1.05h0.57V34.8h1.15v1.61h0.69v1.05H123.94z"/>
			<path class="st0" d="M127.34,42.83h-1.24l0.9-2.06l-1.76-4.36h1.32l1.07,3.12l1.16-3.12h1.33L127.34,42.83z"/>
			<path class="st0" d="M135.76,41.33c-1.13,0-2.01-0.73-2.11-1.95h1.24c0.05,0.54,0.34,0.8,0.87,0.8c0.52,0,0.87-0.32,0.87-0.78
				c0-0.26-0.1-0.5-0.3-0.65c-0.19-0.15-0.26-0.17-1.11-0.5c-0.86-0.32-1.34-0.94-1.34-1.75c0-1.01,0.83-1.83,1.87-1.83
				c1.03,0,1.84,0.7,1.9,1.83h-1.23c-0.04-0.43-0.28-0.68-0.68-0.68c-0.39,0-0.66,0.27-0.66,0.65c0,0.24,0.12,0.44,0.36,0.58
				c0.09,0.05,0.1,0.06,0.71,0.29c1.31,0.49,1.66,1.05,1.66,1.92C137.81,40.44,136.91,41.33,135.76,41.33z"/>
			<path class="st0" d="M143.72,39.32h-3.73c0.14,0.58,0.64,0.95,1.33,0.95c0.47,0,0.76-0.13,1.06-0.48h1.26
				c-0.32,0.99-1.32,1.54-2.29,1.54c-1.47,0-2.61-1.1-2.61-2.5c0-1.42,1.12-2.54,2.54-2.54c1.43,0,2.48,1.09,2.48,2.59
				C143.76,39.05,143.75,39.16,143.72,39.32z M141.3,37.35c-0.69,0-1.16,0.34-1.34,0.96h2.67C142.47,37.69,142.01,37.35,141.3,37.35
				z"/>
			<path class="st0" d="M146.1,38.54v2.67h-1.16v-4.81H146v0.47c0.31-0.44,0.55-0.58,1.04-0.58h0.09v1.11
				C146.44,37.42,146.1,37.79,146.1,38.54z"/>
			<path class="st0" d="M150.56,41.22h-0.92l-1.94-4.81h1.29l1.11,3.19l1.09-3.19h1.3L150.56,41.22z"/>
			<path class="st0" d="M153.46,41.22v-4.81h1.15v4.81H153.46z M153.47,35.71v-1.15h1.15v1.15H153.47z"/>
			<path class="st0" d="M158.34,41.33c-1.43,0-2.57-1.12-2.57-2.52c0-1.42,1.11-2.52,2.54-2.52c1.1,0,2.05,0.62,2.42,1.72h-1.3
				c-0.24-0.44-0.6-0.66-1.12-0.66c-0.8,0-1.37,0.61-1.37,1.45c0,0.84,0.6,1.47,1.4,1.47c0.48,0,0.81-0.19,1.09-0.63h1.3
				C160.33,40.71,159.46,41.33,158.34,41.33z"/>
			<path class="st0" d="M166.74,39.32h-3.73c0.14,0.58,0.64,0.95,1.33,0.95c0.48,0,0.77-0.13,1.06-0.48h1.26
				c-0.32,0.99-1.32,1.54-2.29,1.54c-1.47,0-2.61-1.1-2.61-2.5c0-1.42,1.12-2.54,2.53-2.54c1.44,0,2.49,1.09,2.49,2.59
				C166.79,39.05,166.78,39.16,166.74,39.32z M164.32,37.35c-0.68,0-1.15,0.34-1.34,0.96h2.67
				C165.5,37.69,165.03,37.35,164.32,37.35z"/>
			<path class="st0" d="M170.96,41.22V34.8h1.19v6.42H170.96z"/>
			<path class="st0" d="M176.82,41.22v-2.35c0-1.29-0.34-1.51-0.92-1.51c-0.37,0-0.67,0.16-0.85,0.44
				c-0.15,0.24-0.19,0.51-0.19,1.16v2.27h-1.16v-4.81h1.07v0.46c0.43-0.41,0.81-0.57,1.35-0.57c0.67,0,1.19,0.24,1.5,0.69
				c0.26,0.38,0.35,0.79,0.35,1.65v2.58H176.82z"/>
			<path class="st0" d="M181.71,41.33c-1.43,0-2.57-1.12-2.57-2.52c0-1.42,1.11-2.52,2.54-2.52c1.09,0,2.05,0.62,2.42,1.72h-1.3
				c-0.23-0.44-0.6-0.66-1.12-0.66c-0.8,0-1.37,0.61-1.37,1.45c0,0.84,0.6,1.47,1.4,1.47c0.47,0,0.81-0.19,1.09-0.63h1.3
				C183.7,40.71,182.83,41.33,181.71,41.33z"/>
			<path class="st0" d="M185.5,41.22v-1.11h1.16v1.11H185.5z"/>
		</g>
		<g>
			<g>
				<path class="st0" d="M196.74,27.57H196v1.48h-0.66v-3.84h1.35c0.22,0,0.42,0.03,0.59,0.08c0.17,0.05,0.32,0.12,0.44,0.22
					c0.12,0.1,0.21,0.22,0.27,0.36c0.06,0.14,0.09,0.31,0.09,0.5c0,0.26-0.06,0.47-0.19,0.64c-0.13,0.17-0.3,0.31-0.52,0.4l0.86,1.6
					v0.04h-0.72L196.74,27.57z M196,27.04h0.68c0.12,0,0.22-0.02,0.31-0.05c0.09-0.03,0.17-0.07,0.23-0.13
					c0.06-0.06,0.1-0.12,0.13-0.2c0.03-0.08,0.05-0.16,0.05-0.25c0-0.1-0.01-0.19-0.04-0.27c-0.03-0.08-0.07-0.15-0.13-0.2
					c-0.06-0.06-0.13-0.1-0.22-0.13c-0.09-0.03-0.2-0.05-0.33-0.05H196V27.04z"/>
			</g>
			<path class="st0" d="M196.63,24.04c-1.74,0-3.17,1.42-3.17,3.17c0,1.75,1.42,3.17,3.17,3.17c1.74,0,3.17-1.42,3.17-3.17
				C199.8,25.46,198.38,24.04,196.63,24.04z M196.63,29.89c-1.48,0-2.69-1.21-2.69-2.69c0-1.48,1.21-2.69,2.69-2.69
				s2.69,1.21,2.69,2.69C199.33,28.69,198.12,29.89,196.63,29.89z"/>
		</g>
	</g>
</g>
</svg>
